<svg xmlns="http://www.w3.org/2000/svg" width="377.953" height="377.953" viewBox="0 0 100 100"><path d="M50.002 0c-27.614 0-50 22.386-50 50s22.386 50 50 50 50-22.386 50-50-22.386-50-50-50zm-3.026 8.54c14.137.07 29.496 8.036 32.402 22.96L26.75 16.046C31.5 10.95 39.046 8.502 46.977 8.54zM19.68 32.173c12.302 3.575 30.443 9.638 46.514 14.885 2.315.88 4.792 2.074 7.095 3.922 1.72 1.75 3.272 3.867 4.168 5.833 1.514 3.3 2.387 7.358 2.87 11.306-16.468-5.31-32.633-9.823-48.497-15.576-2.24-.813-4.313-1.73-6.145-3.53-3.002-2.783-5.03-6.578-5.644-10.754-.275-1.986-.333-4.04-.362-6.086zm.767 36.614L73.158 83.7c-12.835 14.1-48.866 8.91-52.713-14.914z" fill="#37abc8"/></svg>